<?xml version="1.0" encoding="UTF-8"?>
<svg xmlns="http://www.w3.org/2000/svg" viewBox="0 0 90 108">
  <style>.sprite {display: none}.sprite:target {display: inline}</style>
  <defs>
    <g class="sprite" id="kiux" fill="#fff">
      <path
        d="M15 37h-4V18h4v6l5-7h4l-7 10 7 10h-4l-5-7zM29 37h-3V18h3zM41 18v15h-6V18h-3v17c0 1 0 2 1 2h10s1-1 1-2V18h-3zM59 18l-4-1-3 6-2-6-4 1 4 9-4 10h4l2-5 3 5h4l-5-10z" />
    </g>
    <g class="sprite" id="btn-editar">
      <title>Editar</title>
      <path fill="none" d="M0 0h180v216H0z" />
      <rect fill="#003D5C" x="13" y="68" width="154" height="110" rx="15" ry="16" />
      <rect fill="#fff" x="24" y="80" width="130.222" height="86.593" rx="5" ry="6" />
      <path fill="#006094" d="M35 98h109.735v6.982H35zM35 120h109.735v6.982H35zM35 141h109.735v6.982H35z" />
      <path fill="#fff" d="M74 158l91-91-41-41-91 91c-12 11-12 30 0 41 11 11 30 11 41 0z" />
      <path fill="#003D5C" d="M74 143l90-91c4-4 4-10 0-14l-12-12c-3-3-9-3-13 0l-91 91 26 26z" />
      <path fill="#003D5C" d="M48 117c-4 9-10 20-12 26-4 9 3 16 12 12 6-2 17-8 26-12l-26-26z" />
      <path fill="#fff"
        d="M68 137c-22 12-23 12-25 10-2-1-1-2 11-24l14 14zM157 52l4-3c2-2 2-5 0-7l-12-12c-2-2-5-2-7 0l-4 4 19 18z" />
    </g>
    <g class="sprite" id="btn-multiselect">
      <path fill="none" d="M0 0h180v216H0z" />
      <path fill="#fff"
        d="M87 50h50.265v10.8H87zM87 115h50.265v10.8H87zM87 180h50.265v10.8H87zM87 25h72.518v10.8H87zM87 90h72.518v10.8H87zM87 155h72.518v10.8H87zM75 43V21c0-3-2-5-5-5H26c-3 0-6 2-6 5v22h14v-9c0-2 2-4 5-4h17c3 0 5 2 5 4v9h14zM75 108V86c0-3-2-5-5-5H26c-3 0-6 2-6 5v22h14v-9c0-2 2-5 5-5h17c3 0 5 3 5 5v9h14zM75 173v-22c0-3-2-6-5-6H26c-3 0-6 3-6 6v22h14v-9c0-3 2-5 5-5h17c3 0 5 2 5 5v9h14zM75 43v22c0 3-2 6-5 6H26c-3 0-6-3-6-6V43h14v9c0 3 2 5 5 5h17c3 0 5-2 5-5v-9h14zM75 108v22c0 3-2 5-5 5H26c-3 0-6-2-6-5v-22h14v9c0 2 2 5 5 5h17c3 0 5-3 5-5v-9h14zM75 173v22c0 3-2 5-5 5H26c-3 0-6-2-6-5v-22h14v9c0 2 2 4 5 4h17c3 0 5-2 5-4v-9h14z" />
    </g>
    <g class="sprite" id="zoom-out">
      <path fill="none" d="M0 0h180v216H0z" />
      <path fill="#003d5c" d="M67 102h45.06v11.28H67z" />
      <path d="M90 46a62 62 0 1 0 62 62 62.31 62.31 0 0 0-62-62zm0 112a50 50 0 0 1 0-100 50 50 0 0 1 0 100z"
        fill="#003d5c" />
    </g>
    <g class="sprite" id="pikachu">
      <path fill='#462502'
        d="M18614.91 5253.86l0 -460.28c-1945.67,-462.96 -3933.3,74.85 -5654.37,641.04 -571.04,187.85 -2346.08,-29.02 -3168.85,24.79 -485.03,31.74 -945.34,87.56 -1418.37,185.42 -479.21,99.15 -887.62,278.58 -1318.32,350.71 -22.46,-5.02 -3259.75,-2623.92 -5081.93,-2749.22 -1292.73,-88.92 757.33,2214.74 961.23,2464 602.04,736.02 1309.52,1323.24 1987.22,1959.36 -29.32,422.16 -327.77,820.41 -365.15,1537.78 -37.76,724.69 -94.45,991.17 -173.12,1627.93 -204.9,1658.94 680.16,2399.12 874.35,2860.11 -540.79,794.78 -1260.59,4102.26 664.08,4882.28 325.08,131.73 975.89,1021.32 1944.83,432.77 290.49,-176.45 46.76,-150.53 551.5,-148.14 192.37,0.91 405.94,20.55 606.41,22.91 895.87,10.68 2054.53,-129.27 2536.1,118.76 943.85,486.17 1564.96,-315.11 1892.37,-482.22 376.89,-192.34 481.6,-308.64 701.1,-673.17 218.03,-362.1 200.5,-588 368.02,-915.64 83.26,-162.83 158.56,-242.76 316.99,-364.36 402.68,-309.2 140.47,45.95 275.41,-416.31 131.32,-449.73 -279.36,86.95 682.27,-604.82 -0.88,-512.19 -206.1,-324.73 195.28,-648.29 468.89,-377.99 948.68,-563.15 611.24,-2136.01 -380.48,-56.69 -378.25,137.08 -648.09,380.03l-1625.02 1446.95c-145.26,-192.38 -224.06,-545.58 -310.72,-783.03 -174.16,-477.37 -128.56,-381.84 119.6,-765.59 594.25,-918.91 495.81,-1847.75 321.56,-2757.5 -179.14,-935.28 237.13,-1197.94 -534.16,-2687.73 1415.88,-480.12 2448.4,-827.01 3690.81,-1609.56l997.73 -732.97z" />
      <path fill='#FAD73E'
        d="M6464.57 13749.35c-235.48,311.85 -621.82,77.11 -921.24,31.78 -492.76,1085.91 -881.46,2994.88 -145,4023.29 404.17,564.42 983.85,566.33 1801.8,660.91 1298.74,150.21 3595.41,141.06 4899.36,-9.19 913.54,-105.23 1375.76,-124.36 1758.31,-731.68 249.27,-395.68 226.13,-453.93 171.28,-908.74 -96.2,-797.92 160.34,-528.46 146.56,-1090.96 -15.6,-638.16 -373.63,-1499.08 -535.39,-2050.84 -322.69,77.6 -837.36,434.33 -1141.05,75.43 333.33,-406.92 1005.46,37.63 1526.03,-1166.59 384.49,-889.39 276.67,-1397.05 113.94,-2301.13 -251.4,-1396.82 339.41,-1977.51 -1372.3,-3360.13 -300.39,-242.66 -268.84,-41.19 -215.09,-427.89 402.13,23.11 933.4,580.89 1104.46,812.13 593.14,-89.71 1666.4,-518.92 2204.25,-764.01 962.53,-438.6 1152.02,-410.41 1372.42,-1608.74 -1768.63,-134.39 -4169.27,953.14 -4824.64,912.85 -2227,-136.84 -5389.71,-245.21 -6912.28,1720.84 -523.7,676.18 -612.11,1200.11 -630.62,2245.67 -10.51,593.57 -580.46,2431.03 530.05,3455.85 128.5,118.56 276.83,213.99 498.95,268.19 577.71,141.06 406.82,-20.77 570.2,212.96z" />
      <path fill='#FAD73E'
        d="M5171.14 7414.79c434.84,-424.78 837.07,-893.15 1546.68,-1191.44 -233.22,-420.38 -3007.12,-2311.36 -3852.8,-2344.34 -76.24,408.44 -188.4,900.66 22.97,1279.43 210.05,376.46 1893.57,2088.4 2283.15,2256.35z" />
      <path fill='#E63C25'
        d="M5572.46 11304.54c-858.59,348.83 -434.65,1737.79 557.77,1433.22 981.01,-301.07 451,-1843.09 -557.77,-1433.22z" />
      <path fill='#E63C25'
        d="M12883.27 11330.23c-935.38,519.53 -234.44,1788.27 662.46,1375.24 891.3,-410.48 256.9,-1885.9 -662.46,-1375.24z" />
      <path fill='#FAD73E'
        d="M14711.7 14691.26c223.34,676.05 331.26,105.27 204.12,951.85 304.63,-66.62 236.23,-82.22 506.1,-216.42 -29.02,-395.88 -72.77,-619.64 872.28,-1165.29l35.76 -971.62c-285.77,170.37 -1440.28,1150.76 -1618.26,1401.48z" />
      <path fill='#462502'
        d="M6969.38 16968.62c-534.29,-98.15 -603.89,-427.96 -725.95,-781.97 -113.2,-328.15 -89.31,-235.61 -216,-321.71 -49.22,57.01 -294.96,-93.49 -44.98,578.81 411.35,1106.27 1766.33,1199.27 1504.03,-293.37 -89.83,-511.21 -155.78,-910.98 -431.48,-1026.28 -313.79,490.67 537.42,1285.61 -85.62,1844.52z" />
      <path fill='#462502'
        d="M13049.01 15768.44c-174.19,131.83 -34.46,-24.14 -138.82,153.87 -190.89,325.5 -109.73,914.15 -925.09,939.88 -295.7,-1067.47 345.6,-1379.26 36.38,-1838.5 -504.42,231.27 -584.45,1870.08 -115.85,2100.35 695.63,341.81 1615.31,-976.06 1143.38,-1355.6z" />
    </g>
  </defs>
</svg>